<svg xmlns="http://www.w3.org/2000/svg" width="256" height="256" viewBox="0 0 16 16" shape-rendering="crispEdges">
          
          
          <rect x="5" y="13" width="6" height="2" fill="#F0C8A0"></rect>
          <rect x="3" y="15" width="10" height="1" fill="#3D6B6B"></rect>
          <rect x="3" y="4" width="10" height="9" fill="#F0C8A0"></rect>
          <rect x="3" y="12" width="10" height="1" fill="#E0B488"></rect>
          <rect x="2" y="7" width="1" height="2" fill="#F0C8A0"></rect>
          <rect x="13" y="7" width="1" height="2" fill="#F0C8A0"></rect>
          
          <rect x="3" y="2" width="10" height="3" fill="#1E1612"></rect>
          <rect x="2" y="3" width="1" height="3" fill="#1E1612"></rect>
          <rect x="13" y="3" width="1" height="3" fill="#1E1612"></rect>
          <rect x="5" y="1" width="2" height="1" fill="#1E1612"></rect>
          <rect x="9" y="1" width="2" height="1" fill="#1E1612"></rect>
          <rect x="4" y="3" width="1" height="1" fill="#3A2A22"></rect>
          <rect x="8" y="2" width="1" height="1" fill="#3A2A22"></rect>
          <rect x="11" y="3" width="1" height="1" fill="#3A2A22"></rect>
          
          <rect x="3" y="1" width="10" height="1" fill="#2A4D6A"></rect>
          <rect x="2" y="2" width="1" height="1" fill="#2A4D6A"></rect>
          <rect x="13" y="2" width="1" height="1" fill="#2A4D6A"></rect>
          <rect x="1" y="6" width="2" height="3" fill="#2A4D6A"></rect>
          <rect x="13" y="6" width="2" height="3" fill="#2A4D6A"></rect>
          <rect x="1" y="7" width="1" height="1" fill="#5A8AAC"></rect>
          <rect x="14" y="7" width="1" height="1" fill="#5A8AAC"></rect>
          
          <rect x="5" y="7" width="2" height="2" fill="#FFFFFF"></rect>
          <rect x="9" y="7" width="2" height="2" fill="#FFFFFF"></rect>
          <rect x="6" y="7" width="1" height="1" fill="#3A2A1A"></rect>
          <rect x="10" y="7" width="1" height="1" fill="#3A2A1A"></rect>
          
          <rect x="7" y="11" width="2" height="1" fill="#C8745A"></rect>
        </svg>